# xmcd CD database file
#
# Track frame offsets:
#	182
#	15210
#	31430
#	46640
#	65480
#	89867
#	106805
#	120880
#	138762
#	154655
#
# Disc length: 2276 seconds
#
# Revision: 1
# Processed by: cddbd v1.5PL3 Copyright (c) Steve Scherf et al.
# Submitted via: CDex 1.40Release
#
DISCID=6e08e20a
DTITLE=Minnie Riperton - Come To My Garden
DYEAR=1969
DGENRE=Soul
TTITLE0=Les Fleur
TTITLE1=Completeness
TTITLE2=Come To My Garden
TTITLE3=Memory Band
TTITLE4=Rainy Day In Centerville
TTITLE5=Close Your Eyes And Remeber 
TTITLE6=Oh, By The Way
TTITLE7=Expecting
TTITLE8=Only When I´m Dreaming
TTITLE9=Wherever We Are
EXTD=YEAR: 1969 ID3G: 42
EXTT0=
EXTT1=
EXTT2=
EXTT3=
EXTT4=
EXTT5=
EXTT6=
EXTT7=
EXTT8=
EXTT9=
PLAYORDER=
